<svg xmlns="http://www.w3.org/2000/svg" viewBox="0 0 1600 1200" fill="none">
  <defs>
    <linearGradient id="tlo" x1="0" y1="0" x2="1600" y2="1200" gradientUnits="userSpaceOnUse">
      <stop stop-color="#050816" />
      <stop offset="0.5" stop-color="#091223" />
      <stop offset="1" stop-color="#040814" />
    </linearGradient>
    <pattern id="siatka" width="64" height="64" patternUnits="userSpaceOnUse">
      <path d="M64 0H0V64" stroke="#93C5FD" stroke-opacity="0.08" />
    </pattern>
    <filter id="poziom" x="-20%" y="-20%" width="140%" height="140%">
      <feGaussianBlur stdDeviation="26" />
    </filter>
  </defs>

  <rect width="1600" height="1200" fill="url(#tlo)" />
  <rect width="1600" height="1200" fill="url(#siatka)" />

  <circle cx="180" cy="160" r="130" fill="#22D3EE" fill-opacity="0.14" filter="url(#poziom)" />
  <circle cx="1420" cy="980" r="170" fill="#3B82F6" fill-opacity="0.14" filter="url(#poziom)" />
  <circle cx="150" cy="980" r="110" fill="#38BDF8" fill-opacity="0.1" filter="url(#poziom)" />
  <circle cx="1450" cy="180" r="120" fill="#67E8F9" fill-opacity="0.1" filter="url(#poziom)" />

  <g stroke="#67E8F9" stroke-opacity="0.18">
    <rect x="62" y="108" width="372" height="238" rx="20" />
    <rect x="88" y="398" width="330" height="170" rx="20" />
    <rect x="110" y="642" width="350" height="212" rx="20" />
    <rect x="1170" y="132" width="356" height="210" rx="20" />
    <rect x="1198" y="410" width="304" height="176" rx="20" />
    <rect x="1142" y="674" width="380" height="228" rx="20" />
  </g>

  <g font-family="Consolas, 'Courier New', monospace" font-size="24" fill="#E2E8F0" fill-opacity="0.24">
    <text x="100" y="170">const routerAplikacji = createBrowserRouter([</text>
    <text x="120" y="208">{ path: "/", element: &lt;UkladStrony /&gt; },</text>
    <text x="120" y="246">{ index: true, element: &lt;StronaGlowna /&gt; },</text>
    <text x="120" y="284">{ path: "kontakt", element: &lt;Kontakt /&gt; }</text>
    <text x="100" y="470">function Nawigacja() {</text>
    <text x="120" y="508">return &lt;nav&gt;...&lt;/nav&gt;;</text>
    <text x="100" y="742">position: sticky;</text>
    <text x="100" y="780">top: 0;</text>
    <text x="100" y="818">background-image: url("tlo-kod.svg");</text>

    <text x="1200" y="194">const linki = ["/", "/kontakt"];</text>
    <text x="1222" y="232">const logo = "logo.png";</text>
    <text x="1222" y="270">const uklad = "&lt;Outlet /&gt;";</text>
    <text x="1220" y="470">display: flex;</text>
    <text x="1220" y="508">justify-content: space-between;</text>
    <text x="1182" y="742">body { background-attachment: fixed; }</text>
    <text x="1182" y="780">#root { margin: 0 auto; }</text>
    <text x="1182" y="818">.pasek-nawigacji { z-index: 100; }</text>
  </g>

  <g stroke="#E2E8F0" stroke-opacity="0.18">
    <path d="M470 140L560 140" />
    <path d="M1040 280L1130 280" />
    <path d="M470 760L560 760" />
    <path d="M1040 890L1130 890" />
  </g>
</svg>
